<?xml version="1.0" encoding="UTF-8" standalone="no"?>
<!-- Created with Inkscape (http://www.inkscape.org/) -->

<svg
   xmlns:dc="http://purl.org/dc/elements/1.1/"
   xmlns:cc="http://creativecommons.org/ns#"
   xmlns:rdf="http://www.w3.org/1999/02/22-rdf-syntax-ns#"
   xmlns:svg="http://www.w3.org/2000/svg"
   xmlns="http://www.w3.org/2000/svg"
   xmlns:sodipodi="http://sodipodi.sourceforge.net/DTD/sodipodi-0.dtd"
   xmlns:inkscape="http://www.inkscape.org/namespaces/inkscape"
   width="210mm"
   height="297mm"
   viewBox="0 0 210 297"
   version="1.1"
   id="svg8"
   inkscape:version="0.92.2 (5c3e80d, 2017-08-06)"
   sodipodi:docname="logo.svg">
  <defs
     id="defs2" />
  <sodipodi:namedview
     id="base"
     pagecolor="#ffffff"
     bordercolor="#666666"
     borderopacity="1.0"
     inkscape:pageopacity="0.0"
     inkscape:pageshadow="2"
     inkscape:zoom="1.7846008"
     inkscape:cx="237.55406"
     inkscape:cy="553.54533"
     inkscape:document-units="mm"
     inkscape:current-layer="layer1"
     showgrid="false"
     inkscape:window-width="3200"
     inkscape:window-height="1668"
     inkscape:window-x="-16"
     inkscape:window-y="-16"
     inkscape:window-maximized="1" />
  <metadata
     id="metadata5">
    <rdf:RDF>
      <cc:Work
         rdf:about="">
        <dc:format>image/svg+xml</dc:format>
        <dc:type
           rdf:resource="http://purl.org/dc/dcmitype/StillImage" />
        <dc:title></dc:title>
      </cc:Work>
    </rdf:RDF>
  </metadata>
  <g
     inkscape:label="Layer 1"
     inkscape:groupmode="layer"
     id="layer1">
    <rect
       id="rect3742"
       width="85"
       height="85"
       x="5.7821059"
       y="47.728897"
       style="fill:#7137c8;stroke-width:0.26881891"
       ry="11.698368"
       inkscape:export-xdpi="96"
       inkscape:export-ydpi="96" />
    <path
       style="fill:#ffffff;stroke-width:0.19244425"
       d="m 47.733265,57.409979 c -4.011793,0.0058 -4.251936,0.02797 -6.500948,0.596579 -7.113317,1.798461 -12.683388,5.48945 -17.029848,11.284598 -1.410815,1.881042 -3.287155,5.342218 -4.068438,7.504648 -0.449154,1.243171 -0.72118,1.635125 -2.138855,3.085932 -2.678066,2.740663 -3.677505,5.265754 -3.662011,9.252197 0.0103,2.651631 0.324981,4.060115 1.380492,6.184933 1.729412,3.48143 5.005879,5.571724 8.72949,5.568934 1.843476,-0.002 2.340511,-0.19533 3.173844,-1.240194 l 0.450325,-0.56448 0.05335,-9.86258 0.05336,-9.86259 -0.478706,-0.696258 c -0.939549,-1.365868 -0.94201,-1.380874 -0.380311,-2.474421 3.438452,-6.694184 10.239696,-11.547888 17.595969,-12.557272 9.256648,-1.270146 18.343081,3.440962 23.290117,12.075307 0.358176,0.625143 0.651269,1.294539 0.651269,1.487712 0,0.193175 -0.283358,0.80082 -0.629698,1.350329 l -0.629698,0.999028 -0.05298,9.383235 -0.05298,9.383237 0.440486,0.858653 c 0.482525,0.940624 1.4922,1.721784 2.225511,1.721784 0.257659,0 0.64541,0.0934 0.861671,0.20758 0.51213,0.2704 0.391939,0.94893 -0.624019,3.51974 -1.005096,2.54333 -2.735262,5.13795 -4.713273,7.06748 -2.166483,2.11339 -3.147987,2.58529 -5.375894,2.58529 -1.878639,0 -1.630367,0.13719 -3.38841,-1.87448 -2.362027,-2.70277 -7.127978,-3.42338 -10.82596,-1.63705 -2.392571,1.15575 -4.130928,3.91945 -3.934477,6.25475 0.154535,1.83704 1.46773,3.98954 3.006202,4.92756 1.853989,1.1304 2.683717,1.32188 5.492071,1.26783 2.605515,-0.0501 2.63939,-0.0563 4.109686,-0.77391 1.028971,-0.50219 1.707271,-0.99117 2.216809,-1.59785 1.61472,-1.92255 1.33057,-1.78824 3.791054,-1.78824 2.581328,0 3.505718,-0.2471 5.395195,-1.44254 3.294955,-2.08469 6.615687,-6.13263 8.466102,-10.31992 0.733534,-1.65991 1.519536,-4.28889 1.870928,-6.25624 0.255197,-1.428784 0.312111,-1.534244 1.512944,-2.813776 0.686235,-0.731209 1.557359,-1.912688 1.936015,-2.625239 1.072439,-2.018092 1.303237,-3.202382 1.300271,-6.675112 -0.0022,-2.819958 -0.04027,-3.137409 -0.543422,-4.563192 C 80.06313,82.528818 78.998299,80.934243 77.421394,79.432995 76.374952,78.436762 76.178132,78.114208 75.324546,75.994641 73.712655,71.992086 71.479424,68.668158 68.356249,65.623204 64.302093,61.670583 59.490186,59.080779 53.910284,57.848267 52.139549,57.45714 51.400792,57.404629 47.733265,57.409979 Z"
       id="rect3738"
       inkscape:connector-curvature="0"
       inkscape:export-xdpi="96"
       inkscape:export-ydpi="96" />
    <path
       inkscape:connector-curvature="0"
       id="path3726"
       d="M 176.85086,114.04825 V 47.902417 h 66.14321 66.14322 l 2e-5,66.145833 2e-5,66.14584 H 242.9941 176.85086 Z m 74.48021,41.25628 c 1.51704,-0.60127 2.75934,-1.65302 5.24215,-4.4381 l 0.74423,-0.83484 h 3.11035 c 1.98178,0 3.59088,-0.1427 4.43468,-0.39329 3.06681,-0.91074 7.83089,-5.16605 10.83388,-9.67689 2.78609,-4.18504 4.39201,-8.186 5.39187,-13.43327 0.54599,-2.86539 0.8538,-3.47072 2.64614,-5.20385 2.59778,-2.51195 3.9677,-5.99941 4.17918,-10.63917 0.27332,-5.99615 -1.13782,-9.85552 -4.96181,-13.570201 -1.67236,-1.62455 -2.128,-2.248247 -2.51276,-3.439584 -0.81791,-2.532475 -2.99052,-6.876693 -4.81957,-9.636906 -2.29425,-3.462256 -7.24669,-8.474969 -10.5414,-10.6697 -5.93051,-3.950535 -11.23342,-5.81051 -19.0844,-6.693779 -5.78951,-0.651344 -14.52226,1.089099 -20.32713,4.051211 -3.75207,1.914608 -8.49808,5.599502 -11.39871,8.850179 -3.30686,3.705926 -5.65619,7.569567 -7.75861,12.759637 -1.25915,3.108332 -1.4281,3.376602 -3.04619,4.836992 -2.58476,2.33284 -3.89101,4.833071 -4.92874,9.433871 -0.39272,1.74113 -0.19897,5.62337 0.39118,7.83829 0.56339,2.11447 2.014,5.03662 3.16928,6.3843 1.81246,2.11432 4.88684,3.64656 8.135,4.05441 2.25546,0.28321 3.40681,-0.004 4.30729,-1.07404 l 0.67846,-0.80631 v -13.22627 c 0,-13.889281 0.0214,-13.625701 -1.22993,-15.129999 -0.34219,-0.411345 -0.62215,-0.98085 -0.62215,-1.265566 0,-0.749713 1.16547,-2.946948 2.93174,-5.527154 8.96498,-13.096211 24.42116,-18.146161 38.47555,-12.571008 7.21549,2.862266 14.00875,9.140826 17.58761,16.255069 0.9403,1.869171 0.94299,1.847819 -0.52182,4.135357 -0.49494,0.77293 -0.51821,1.37762 -0.53669,13.949241 -0.0127,8.66157 0.0748,13.31724 0.25693,13.65746 0.42325,0.79084 1.60152,1.61555 2.30816,1.61555 0.34885,0 1.04716,0.17252 1.55181,0.38337 0.79717,0.33308 0.91755,0.50388 0.91755,1.30184 0,1.07034 -1.29974,4.8933 -2.44051,7.17833 -1.4916,2.98779 -3.60832,5.85816 -5.99465,8.12907 -3.05313,2.90544 -4.21134,3.48089 -7.25419,3.60418 -2.91546,0.11812 -3.63624,-0.1678 -4.96817,-1.97076 -2.03825,-2.75908 -4.9273,-4.07395 -8.95137,-4.07395 -3.618,0 -6.46146,1.07283 -8.25373,3.11412 -3.04965,3.47335 -2.51764,8.6607 1.16551,11.36438 2.22528,1.63351 4.31777,2.22426 7.46065,2.10628 1.99123,-0.0747 3.03859,-0.25498 4.23333,-0.7285 z"
       style="fill:#e5e5e5;stroke-width:0.26458335" />
    <path
       inkscape:connector-curvature="0"
       id="path3724"
       d="M 215.22677,110.1284 V 43.988577 h 61.50001 c 40.71461,0 61.55528,0.08942 61.66354,0.264583 0.0899,0.145521 0.48391,0.250497 0.87551,0.23328 l 0.71199,-0.0313 -0.79375,-0.201975 c -0.46623,-0.118633 1.08954,-0.214892 3.77031,-0.233279 l 4.56406,-0.0313 v 3.96875 c 0,2.402296 -0.10185,3.96875 -0.25803,3.96875 -0.16766,0 -0.16766,0.237711 0,0.678683 0.35328,0.929198 0.35328,114.394691 0,115.323891 -0.16766,0.44097 -0.16766,0.67868 0,0.67868 0.15579,0 0.25803,1.52012 0.25803,3.83646 v 3.83646 h -3.83646 c -2.11005,0 -3.83646,-0.10653 -3.83646,-0.23672 0,-0.13836 -0.41228,-0.14042 -0.99218,-0.005 -0.55277,0.12912 -28.14868,0.2313 -62.30938,0.23072 l -61.31719,-0.001 z m 0.44794,57.49178 c -0.0671,-0.25743 -0.12638,-0.11087 -0.13178,0.32569 -0.005,0.43657 0.0495,0.64719 0.12197,0.46806 0.0725,-0.17913 0.0769,-0.53632 0.01,-0.79375 z m 73.1445,-15.67211 c 2.11309,-0.65305 3.90957,-1.78248 4.89042,-3.07456 1.94203,-2.55824 1.79448,-2.49045 5.43585,-2.49746 2.77771,-0.005 3.47831,-0.0955 4.7231,-0.60763 4.30618,-1.77173 9.44854,-7.11108 12.40462,-12.87984 1.89518,-3.6984 2.74254,-6.29555 3.74316,-11.47267 0.26639,-1.37825 0.50248,-1.76945 2.122,-3.5161 3.08177,-3.32369 4.48234,-7.13813 4.4734,-12.18325 -0.01,-5.40134 -1.36584,-8.887151 -4.85954,-12.489641 -1.9068,-1.96617 -2.30571,-2.544023 -2.94028,-4.259174 -3.15896,-8.538298 -8.75275,-15.563816 -16.27267,-20.437667 -5.38763,-3.491861 -10.6371,-5.252613 -18.04058,-6.051088 -3.45783,-0.372931 -6.73073,-0.122521 -11.31318,0.865575 -11.79103,2.542459 -21.68401,10.487423 -27.12857,21.786721 -0.77131,1.60073 -1.61179,3.565261 -1.86772,4.365625 -0.37524,1.173438 -0.88737,1.890678 -2.64492,3.704168 -2.66393,2.74873 -3.64581,4.45351 -4.49647,7.806891 -0.80759,3.18361 -0.84611,5.90247 -0.12732,8.98518 1.54654,6.63269 5.50407,10.45909 11.67667,11.28979 1.89341,0.25481 2.17605,0.23108 3.21024,-0.26956 2.13315,-1.03264 2.04852,-0.40073 2.04852,-15.29434 V 92.521779 l -0.93541,-1.446289 c -1.10236,-1.70442 -1.07801,-1.943614 0.4687,-4.605319 6.16386,-10.607271 16.86877,-17.079903 28.24796,-17.079903 11.52386,0 23.0997,7.244599 28.61936,17.911086 1.08874,2.103943 1.08606,2.165202 -0.17665,4.027965 l -0.79375,1.17094 -0.0764,12.719681 c -0.0673,11.19778 -0.0252,12.85383 0.35133,13.84082 0.52325,1.37147 1.48162,2.09134 3.15852,2.37247 1.74533,0.29261 1.96006,0.71629 1.41231,2.78653 -1.2162,4.59667 -4.05571,9.56574 -7.39389,12.93915 -3.36927,3.40481 -4.89726,4.19634 -8.10085,4.19634 -2.44436,0 -3.29599,-0.39892 -4.70655,-2.20464 -2.10221,-2.69114 -4.95825,-3.9711 -8.84961,-3.96605 -2.80896,0.004 -4.7484,0.55368 -6.81257,1.93208 -4.20945,2.81096 -4.96079,8.24211 -1.66024,12.00123 2.55151,2.906 7.93121,4.15288 12.21101,2.8302 z m -73.1445,-99.686228 c -0.0671,-0.257431 -0.12638,-0.110869 -0.13178,0.325694 -0.005,0.436562 0.0495,0.647187 0.12197,0.468056 0.0725,-0.179132 0.0769,-0.536319 0.01,-0.79375 z m 8.61907,-7.917648 c -0.17913,-0.07248 -0.53631,-0.07689 -0.79375,-0.0098 -0.25743,0.06708 -0.11086,0.126381 0.3257,0.131774 0.43656,0.0054 0.64719,-0.0495 0.46805,-0.12197 z"
       style="fill:#cdcdcd;stroke-width:0.26458335" />
    <path
       inkscape:connector-curvature="0"
       id="path3722"
       d="m 224.32508,172.0718 c 0.0184,-2.68078 0.11465,-4.23654 0.23328,-3.77032 l 0.20198,0.79375 0.0313,-0.85989 c 0.0172,-0.47295 -0.0878,-0.8599 -0.23328,-0.8599 -0.36673,0 -0.36673,-113.411882 0,-113.638533 0.14552,-0.08994 0.25049,-0.483917 0.23328,-0.875511 l -0.0313,-0.711989 -0.20198,0.79375 c -0.11792,0.463446 -0.215,-1.160547 -0.23328,-3.902605 l -0.0313,-4.696354 4.69636,0.0313 c 2.74206,0.01828 4.36605,0.115352 3.9026,0.233279 l -0.79375,0.201975 0.8599,0.0313 c 0.47294,0.01722 0.85989,-0.08776 0.85989,-0.23328 0,-0.175566 19.0941,-0.264583 56.75313,-0.264583 37.65903,0 56.75312,0.08902 56.75312,0.264583 0,0.145521 0.38696,0.250497 0.8599,0.23328 l 0.8599,-0.0313 -0.79375,-0.201975 c -0.46623,-0.118633 1.08954,-0.214892 3.77031,-0.233279 l 4.56406,-0.0313 v 3.96875 c 0,2.469445 -0.0999,3.96875 -0.26458,3.96875 -0.14552,0 -0.26459,0.304683 -0.26459,0.677073 0,0.381938 0.11481,0.60612 0.26338,0.514299 0.17447,-0.107828 0.26338,19.183876 0.26338,57.14924 0,37.96538 -0.0889,57.25709 -0.26338,57.14926 -0.14857,-0.0918 -0.26338,0.13236 -0.26338,0.5143 0,0.37239 0.11907,0.67707 0.26459,0.67707 0.16422,0 0.26458,1.45521 0.26458,3.83646 v 3.83646 h -3.83646 c -2.11005,0 -3.83646,-0.10653 -3.83646,-0.23672 0,-0.13812 -0.41329,-0.14075 -0.99218,-0.006 -0.54687,0.127 -26.28632,0.23041 -57.34844,0.23041 -31.06212,0 -56.80157,-0.10341 -57.34844,-0.23041 -0.5789,-0.13442 -0.99219,-0.13179 -0.99219,0.006 0,0.13019 -1.78593,0.23672 -3.96875,0.23672 h -3.96875 z m 73.11674,-19.38944 c 2.16975,-0.56515 3.94597,-1.59632 5.19418,-3.01544 2.59834,-2.95412 1.98774,-2.66362 5.61347,-2.67068 2.76366,-0.005 3.43902,-0.0945 4.72533,-0.62357 4.44028,-1.82631 9.82721,-7.49705 12.85044,-13.52746 1.69348,-3.37797 2.56453,-6.1161 3.52272,-11.07369 0.26638,-1.37825 0.50247,-1.76945 2.12199,-3.5161 1.94597,-2.09874 3.34334,-4.63549 3.98608,-7.23623 0.54903,-2.22161 0.46922,-8.45724 -0.13376,-10.45103 -0.84683,-2.80007 -2.22913,-5.06571 -4.41587,-7.2378 -1.7611,-1.74929 -2.1357,-2.290777 -2.77207,-4.006994 -3.43657,-9.26804 -9.80185,-16.870316 -18.24784,-21.794038 -6.23694,-3.635921 -15.51709,-5.704433 -22.23221,-4.955479 -10.42203,1.162395 -17.67499,4.576766 -24.74891,11.650688 -4.6169,4.616897 -7.45325,8.998791 -9.65578,14.917258 -0.79751,2.143022 -1.03795,2.497365 -2.96743,4.373155 -2.43715,2.36933 -3.67305,4.61277 -4.54502,8.25026 -1.7267,7.20309 1.14457,15.22724 6.60247,18.45149 2.761,1.63105 7.4207,2.20553 9.18143,1.13195 1.72447,-1.05147 1.68829,-0.70138 1.60736,-15.5554 l -0.0732,-13.42718 -0.8599,-1.164173 c -0.47294,-0.640297 -0.85964,-1.295141 -0.85933,-1.455208 8e-4,-0.463664 1.55135,-3.291457 2.9884,-5.450407 1.68056,-2.524802 6.3516,-7.178053 8.8841,-8.850259 9.87668,-6.521565 21.62251,-7.193018 31.8165,-1.818799 5.7435,3.027942 10.52031,7.775313 13.95145,13.865453 0.96825,1.718595 1.03888,2.554531 0.2957,3.499334 -1.31013,1.665569 -1.31597,1.731899 -1.3144,14.925449 7.9e-4,7.33616 0.10796,12.76109 0.26291,13.31885 0.37569,1.35237 1.56591,2.38103 3.08291,2.66444 1.96066,0.36629 2.15551,0.68847 1.62943,2.69425 -1.50988,5.75673 -5.56754,11.86796 -10.1361,15.26593 -1.75094,1.3023 -2.69637,1.58534 -5.29547,1.58534 -2.43151,0 -3.05907,-0.30457 -4.10091,-1.99031 -1.20914,-1.95642 -4.76955,-3.81923 -8.06612,-4.2202 -0.74707,-0.0909 -2.25222,0.004 -3.45785,0.21687 -3.1937,0.56513 -5.56053,1.91901 -6.97316,3.9888 -3.52749,5.16846 -0.73958,11.45866 5.86712,13.23769 1.85537,0.49961 4.7602,0.50102 6.6713,0.003 z"
       style="fill:#aaaaaa;stroke-width:0.26458335" />
    <path
       style="fill:#ffffff;stroke-width:0.26881891"
       d="m 14.417582,148.79141 c -6.4808971,0 -11.6985121,5.2171 -11.6985121,11.698 v 61.60347 c 0,6.48089 5.217615,11.69851 11.6985121,11.69851 h 61.602955 c 6.480897,0 11.698512,-5.21762 11.698512,-11.69851 v -61.60347 c 0,-6.4809 -5.217615,-11.698 -11.698512,-11.698 z m 30.252416,9.68106 c 3.667529,-0.005 4.406669,0.0471 6.177401,0.43822 5.579899,1.23251 10.391468,3.8221 14.445628,7.77472 3.123171,3.04495 5.356688,6.3689 6.968567,10.37146 0.853591,2.11956 1.050073,2.44232 2.096513,3.43855 1.576912,1.50125 2.642217,3.09592 3.285588,4.91908 0.503121,1.42578 0.541118,1.74307 0.543118,4.56303 0.003,3.47273 -0.227737,4.65695 -1.300178,6.67504 -0.378659,0.71255 -1.249558,1.89396 -1.935798,2.62516 -1.200832,1.27954 -1.257887,1.385 -1.513088,2.81378 -0.351388,1.96735 -1.137664,4.59656 -1.871202,6.25647 -1.850411,4.18729 -5.171199,8.23509 -8.466151,10.31978 -1.889479,1.19544 -2.813688,1.44281 -5.395018,1.44281 -2.460479,0 -2.176264,-0.13455 -3.790984,1.788 -0.50954,0.60668 -1.187948,1.09565 -2.216918,1.59784 -1.4703,0.71761 -1.504317,0.72401 -4.109828,0.77411 -2.808359,0.0541 -3.637664,-0.13774 -5.491655,-1.26814 -1.53847,-0.93802 -2.851994,-3.09031 -3.006534,-4.92735 -0.196451,-2.3353 1.542074,-5.09916 3.934645,-6.25491 3.697978,-1.78633 8.463664,-1.06566 10.825694,1.63711 1.75804,2.01167 1.509784,1.8743 3.388424,1.8743 2.22791,0 3.209419,-0.47147 5.375899,-2.58485 1.978012,-1.92954 3.708307,-4.52445 4.713409,-7.06779 1.01595,-2.57081 1.13638,-3.24928 0.62425,-3.51968 -0.21627,-0.11418 -0.604303,-0.20774 -0.861962,-0.20774 -0.733311,0 -1.742657,-0.78123 -2.225188,-1.72186 l -0.440799,-0.85834 0.05323,-9.38341 0.05271,-9.38289 0.629936,-0.99942 c 0.346329,-0.54951 0.629417,-1.15713 0.629417,-1.35031 0,-0.19317 -0.292941,-0.86262 -0.651124,-1.48776 -4.947028,-8.63434 -14.033399,-13.34538 -23.290051,-12.07523 -7.356268,1.00938 -14.157375,5.86319 -17.595823,12.55737 -0.5617,1.09355 -0.559213,1.1084 0.380339,2.47427 l 0.478522,0.6966 -0.05323,9.86244 -0.05375,9.86245 -0.450101,0.56482 c -0.833329,1.04487 -1.330497,1.23762 -3.173965,1.23972 -3.723622,0.003 -6.999774,-2.08722 -8.729184,-5.56865 -1.055521,-2.12482 -1.370494,-3.53352 -1.380794,-6.18515 -0.01549,-3.98645 0.98425,-6.51149 3.66231,-9.25215 1.417679,-1.45081 1.689737,-1.84243 2.138886,-3.0856 0.78128,-2.16243 2.657149,-5.62393 4.067969,-7.50497 4.346461,-5.79515 9.916649,-9.48612 17.029969,-11.28458 2.249009,-0.56861 2.489105,-0.59055 6.500895,-0.59635 z"
       id="rect3742-4"
       inkscape:connector-curvature="0"
       inkscape:export-xdpi="96"
       inkscape:export-ydpi="96" />
  </g>
</svg>
